<svg height="512pt" viewBox="0 0 512 512" width="512pt" xmlns="http://www.w3.org/2000/svg"><path d="m494.269531 426-18.308593-149h16.867187v-30h-13.519531l6.941406-61.671875h-42.75v-13.328125h14v-30h-14v-16.5h-30v16.5h-14v30h14v13.328125h-42.75l6.941406 61.671875h-13.519531v30h16.867187l-4.507812 36.730469c-6.832031-8.441407-14.671875-16.03125-23.332031-22.582031v-140.976563c0-82.8125-67.371094-150.171875-150.167969-150.171875-82.800781 0-150.171875 67.359375-150.171875 150.171875v140.976563c-32.089844 24.273437-52.859375 62.75-52.859375 106v114.851562h512v-86zm-41.578125-210.671875-3.570312 31.671875h-41.242188l-3.570312-31.671875zm-41.421875 61.671875h34.460938l18.308593 149h-71.078124zm-328.410156-126.828125c0-66.261719 53.910156-120.171875 120.171875-120.171875 66.257812 0 120.167969 53.910156 120.167969 120.171875v114.136719h-28.289063c7.96875-14.730469 12.5-31.589844 12.5-49.480469l-.058594-80.828125-208.640624-.039062-.0625 80.867187c0 17.890625 4.53125 34.75 12.5 49.480469h-28.289063zm194.550781 13.828125v50.828125c0 18.980469-7.148437 36.320313-18.898437 49.480469-5.28125 5.929687-11.511719 11.011718-18.441407 15-10.910156 6.300781-23.558593 9.902344-37.039062 9.902344s-26.132812-3.601563-37.042969-9.902344c-6.929687-3.988282-13.160156-9.070313-18.4375-15-11.75-13.160156-18.902343-30.5-18.902343-49.480469v-50.828125zm-197.910156 318h-49.5v-30.710938h49.5zm265.5 0h-18.441406v-30.710938h18.441406zm18.308594-60.710938h-36.75v-45.71875h-30v106.429688h-187.058594v-106.429688h-30v45.71875h-49.5v-24.140624c0-56.707032 46.128906-102.839844 102.839844-102.839844h2.621094c18.21875 15.519531 41.820312 24.902344 67.570312 24.902344s49.347656-9.382813 67.570312-24.902344h2.617188c44.941406 0 83.230469 28.960937 97.191406 69.210937zm118.691406 60.710938h-105.941406v-26h105.941406zm0 0"/></svg>