<?xml version="1.0"?>
<svg xmlns="http://www.w3.org/2000/svg" viewBox="0 0 512 512" width="512" height="512"><g id="Outline"><path d="M112.147,160a24.027,24.027,0,0,0,24-24h-16a8,8,0,0,1-16,0h-16A24.027,24.027,0,0,0,112.147,160Z"/><rect x="128.147" y="104" width="16" height="16"/><path d="M400,168a24.027,24.027,0,0,0,24-24H408a8,8,0,0,1-16,0H376A24.027,24.027,0,0,0,400,168Z"/><path d="M456,184H442.414a63.85,63.85,0,0,0,21.736-48V113.738A23.961,23.961,0,0,0,464,78.131V56a40.045,40.045,0,0,0-40-40H376a40.045,40.045,0,0,0-40,40h16a24.028,24.028,0,0,1,24-24h48a24.028,24.028,0,0,1,24,24V72H352a23.984,23.984,0,0,0-15.85,42v22a63.85,63.85,0,0,0,21.736,48H344a40.115,40.115,0,0,0-7.146.664A39.715,39.715,0,0,0,312,176H298.264A63.85,63.85,0,0,0,320,128V56a40.045,40.045,0,0,0-40-40H213.173a29.314,29.314,0,0,0-11.548,56.257,108.682,108.682,0,0,0,77.26,3.214l5.557-1.852L304,106.216V128a48,48,0,0,1-96,0V88H192v40a63.85,63.85,0,0,0,21.736,48H200a40.081,40.081,0,0,0-16,3.353V88a72.081,72.081,0,0,0-72-72H101.612A69.612,69.612,0,0,0,32,85.612V168H48V127.062l.15-.019V128a63.85,63.85,0,0,0,21.736,48H56a39.982,39.982,0,0,0-40,40v24a8,8,0,0,0,8,8H42.342A42.6,42.6,0,0,0,56,283.748V288H32V264H16v48a32.034,32.034,0,0,0,31.887,32L32.109,438.685A8,8,0,0,0,40,448H56v48H72V448h32v48h16V448h32v48h16V448h16a8,8,0,0,0,7.891-9.315L185.444,400H192v96h16V368h96V496h16V344h16V496h16V376h96V496h16V344a32.036,32.036,0,0,0,32-32V224A40.045,40.045,0,0,0,456,184ZM294.86,59.884a7.993,7.993,0,0,0-9.39-3.473l-11.645,3.881a92.7,92.7,0,0,1-65.9-2.741A13.314,13.314,0,0,1,213.173,32H280a24.027,24.027,0,0,1,24,24V75.118Zm61.578,213.46A7.988,7.988,0,0,0,352,272.007V264h24V248H352V216a39.9,39.9,0,0,0-3.327-16h22.8L392,234.216v43.743l-15.621,8.679ZM328,320H307.47a8.032,8.032,0,0,1-3.319-.712l-28.817-13.107L297.733,296H336v16A8.009,8.009,0,0,1,328,320Zm-120.155-.717a7.946,7.946,0,0,1-3.311.717H184a8.009,8.009,0,0,1-8-8V294.034l99.814-28.518,9.318,18.636ZM160,360H72V344h88ZM137.564,192l-25,40H111.43L86.436,192ZM206.7,256l14.017,4.672-2.3,4.6L176,277.394V256Zm58.35-64-7.708,11.562A8,8,0,0,0,256,207.986a8,8,0,0,0-1.344-4.424L246.948,192ZM305.3,256H336v24H300.944l-9.663-19.328Zm-49.321-47.386c.015-.2.023-.4.023-.6,0,.2.008.4.023.6l3.459,44.928-3.486,1-3.478-.994ZM168,159.2V176H154.414A64.425,64.425,0,0,0,168,159.2ZM156.434,192H168v.007A39.95,39.95,0,0,0,160,216v16H131.434Zm99.572,122.967,1.178.536L256,316.687l-1.181-1.181ZM409.871,200,400,216.451,390.129,200ZM408,287.374l40.561-22.534L480,277.416V288H408ZM480,224v36.184l-16-6.4V232H448v16H424v12.182l-16,8.889V234.216L428.53,200H456A24.027,24.027,0,0,1,480,224ZM352,88h96a8,8,0,0,1,0,16h-5.117a80.49,80.49,0,0,1-19.5-2.4,96.747,96.747,0,0,0-46.764,0c-1.581.395-3.19.746-4.785,1.043A80.614,80.614,0,0,1,357.117,104H352a8,8,0,0,1,0-16Zm.15,48V120h4.967A96.664,96.664,0,0,0,368,119.358V128h16V116.339a80.775,80.775,0,0,1,32,0V128h16v-8.627a96.29,96.29,0,0,0,10.883.627H448c.05,0,.1,0,.15,0v16a48,48,0,0,1-96,0Zm-23.162,63.042A23.844,23.844,0,0,1,336,216v24H320V224H304v16a8,8,0,0,0-2.53.411l-23.828,7.943-2.458.7-3-38.916L284.281,192H312A23.871,23.871,0,0,1,328.988,199.042ZM200,192h27.719l12.093,18.14-3,38.916-2.457-.7-23.829-7.943A8,8,0,0,0,208,240V224H192v16H176V216a23.983,23.983,0,0,1,24-24ZM48,85.612A53.612,53.612,0,0,1,101.612,32H112a56.064,56.064,0,0,1,56,56v6.111l-1.564,3.128L142.247,67a8,8,0,0,0-12.494,0,117.486,117.486,0,0,1-77.575,43.414L48,110.938ZM64.15,128v-3.342A134.307,134.307,0,0,0,81.334,120H96.15v-6.1a133.325,133.325,0,0,0,39.619-29.378l24.381,30.476V128a48,48,0,0,1-96,0Zm-9.523,94.059A42.668,42.668,0,0,0,47.244,232H32V216a23.983,23.983,0,0,1,24-24H67.566l25,40H67.313l2.344-2.343L58.343,218.343ZM72,280V248h88v40h-3.056l2.211-4.422a8,8,0,0,0-3.577-10.733l-16-8a8,8,0,0,0-9.235,1.5L108.687,288H72ZM32,312v-8h80a8,8,0,0,0,5.657-2.343l19.923-19.923,3.687,1.844-4.422,8.844A8,8,0,0,0,144,304h16v24H48A16.019,16.019,0,0,1,32,312ZM174.556,432H49.443l9.618-57.715A7.955,7.955,0,0,0,64,376h88v8c0,.268,0,.536.017.8l.006.112A16.01,16.01,0,0,0,168,400h1.223ZM168,384l0-.072L168,384v-8a8,8,0,0,0,8-8V334.624A23.889,23.889,0,0,0,184,336h8v48Zm40-32V335.744a23.845,23.845,0,0,0,6.466-1.9l24.8-11.272,11.08,11.08a8,8,0,0,0,11.314,0l11.08-11.08,24.808,11.283A24.017,24.017,0,0,0,304,335.745V352Zm144-8h40v16H352Zm96,16H408V344h40Zm32-48a16.019,16.019,0,0,1-16,16H345.869A23.9,23.9,0,0,0,352,312V289.615s19.562,13.041,19.584,13.053A8.325,8.325,0,0,0,376,304H480Z"/><path d="M400,392a8,8,0,0,0-7.972,7.335l-8,96h31.944l-8-96A8,8,0,0,0,400,392Z"/><path d="M256,136a8.009,8.009,0,0,1-8-8H232a24,24,0,0,0,48,0H264A8.009,8.009,0,0,1,256,136Z"/><rect x="224" y="96" width="16" height="16"/><rect x="272" y="96" width="16" height="16"/><path d="M256,384a8,8,0,0,0-7.977,7.386l-8,104h31.954l-8-104A8,8,0,0,0,256,384Z"/></g></svg>
