<svg height="512" viewBox="0 0 512 512" width="512" xmlns="http://www.w3.org/2000/svg"><g id="Outline"><path d="m456 408h-4.451a31.631 31.631 0 0 0 4.451-16v-16a32 32 0 0 0 -64 0v16a31.631 31.631 0 0 0 4.451 16h-4.451a38.207 38.207 0 0 0 -12 2.062 38.207 38.207 0 0 0 -12-2.062h-4.451a31.631 31.631 0 0 0 4.451-16v-16a32 32 0 0 0 -64 0v16a31.631 31.631 0 0 0 4.451 16h-4.451a37.865 37.865 0 0 0 -7.814.856 39.939 39.939 0 0 0 -8.186-.856h-4.451a31.631 31.631 0 0 0 4.451-16v-16a32 32 0 0 0 -64 0v16a31.631 31.631 0 0 0 4.451 16h-4.451a39.939 39.939 0 0 0 -8.186.856 37.865 37.865 0 0 0 -7.814-.856h-4.451a31.631 31.631 0 0 0 4.451-16v-16a32 32 0 0 0 -64 0v16a31.631 31.631 0 0 0 4.451 16h-4.451a38 38 0 0 0 -12.02 2.056 38.2 38.2 0 0 0 -11.98-2.056h-4.451a31.631 31.631 0 0 0 4.451-16v-16a32 32 0 0 0 -64 0v16a31.631 31.631 0 0 0 4.451 16h-4.451a40.047 40.047 0 0 0 -40 40v40a8 8 0 0 0 8 8h464a8 8 0 0 0 8-8v-40a39.957 39.957 0 0 0 -40-40zm-48-16v-16a16 16 0 0 1 32 0v16a16 16 0 0 1 -32 0zm-88 0v-16a16 16 0 0 1 32 0v16a16 16 0 0 1 -32 0zm-80 0v-16a16 16 0 0 1 32 0v16a16 16 0 0 1 -32 0zm-80 0v-16a16 16 0 0 1 32 0v16a16 16 0 0 1 -32 0zm-88 0v-16a16 16 0 0 1 32 0v16a16 16 0 0 1 -32 0zm-40 56a24.027 24.027 0 0 1 24-24h56.092a39.714 39.714 0 0 0 -8.092 24v32h-40v-32h-16v32h-16zm104 0v32h-16v-32a23.868 23.868 0 0 1 15.191-22.266 22 22 0 0 1 8.809-1.734h48.205a39.607 39.607 0 0 0 -8.205 24v32h-32v-32zm160 32v-32h-16v32h-48v-32h-16v32h-16v-32a24.027 24.027 0 0 1 24-24h64a24.027 24.027 0 0 1 24 24v32zm80 0v-32h-16v32h-32v-32a39.607 39.607 0 0 0 -8.2-24h48.2a22.262 22.262 0 0 1 9.027 1.828 23.66 23.66 0 0 1 14.973 22.172v32zm104 0h-16v-32h-16v32h-40v-32a39.77 39.77 0 0 0 -8.217-24h56.217a23.961 23.961 0 0 1 24 24z"/><path d="m48 152h16v16h-16z"/><path d="m80 152h16v16h-16z"/><path d="m112 152h16v16h-16z"/><path d="m48 184h16v16h-16z"/><path d="m80 184h16v16h-16z"/><path d="m112 184h16v16h-16z"/><path d="m48 216h16v16h-16z"/><path d="m80 216h16v16h-16z"/><path d="m112 216h16v16h-16z"/><path d="m48 248h16v16h-16z"/><path d="m80 248h16v16h-16z"/><path d="m112 248h16v16h-16z"/><path d="m48 280h16v16h-16z"/><path d="m80 280h16v16h-16z"/><path d="m112 280h16v16h-16z"/><path d="m48 312h16v16h-16z"/><path d="m80 312h16v16h-16z"/><path d="m112 312h16v16h-16z"/><path d="m488 120h-120v-64a8 8 0 0 0 -8-8h-8v-24a8 8 0 0 0 -8-8h-176a8 8 0 0 0 -8 8v24h-8a8 8 0 0 0 -8 8v64h-120a8 8 0 0 0 -8 8v272h16v-264h112v192h16v-264h192v264h16v-192h112v264h16v-272a8 8 0 0 0 -8-8zm-312-72v-16h160v16z"/><path d="m448 152h16v16h-16z"/><path d="m416 152h16v16h-16z"/><path d="m384 152h16v16h-16z"/><path d="m448 184h16v16h-16z"/><path d="m416 184h16v16h-16z"/><path d="m384 184h16v16h-16z"/><path d="m448 216h16v16h-16z"/><path d="m416 216h16v16h-16z"/><path d="m384 216h16v16h-16z"/><path d="m448 248h16v16h-16z"/><path d="m416 248h16v16h-16z"/><path d="m384 248h16v16h-16z"/><path d="m448 280h16v16h-16z"/><path d="m416 280h16v16h-16z"/><path d="m384 280h16v16h-16z"/><path d="m448 312h16v16h-16z"/><path d="m416 312h16v16h-16z"/><path d="m384 312h16v16h-16z"/><path d="m216 88h16v16h-16z"/><path d="m184 88h16v16h-16z"/><path d="m248 88h16v16h-16z"/><path d="m280 88h16v16h-16z"/><path d="m312 88h16v16h-16z"/><path d="m216 120h16v16h-16z"/><path d="m184 120h16v16h-16z"/><path d="m248 120h16v16h-16z"/><path d="m280 120h16v16h-16z"/><path d="m312 120h16v16h-16z"/><path d="m216 152h16v16h-16z"/><path d="m184 152h16v16h-16z"/><path d="m248 152h16v16h-16z"/><path d="m280 152h16v16h-16z"/><path d="m312 152h16v16h-16z"/><path d="m216 184h16v16h-16z"/><path d="m184 184h16v16h-16z"/><path d="m248 184h16v16h-16z"/><path d="m280 184h16v16h-16z"/><path d="m312 184h16v16h-16z"/><path d="m216 216h16v16h-16z"/><path d="m184 216h16v16h-16z"/><path d="m248 216h16v16h-16z"/><path d="m280 216h16v16h-16z"/><path d="m312 216h16v16h-16z"/><path d="m216 248h16v16h-16z"/><path d="m184 248h16v16h-16z"/><path d="m248 248h16v16h-16z"/><path d="m280 248h16v16h-16z"/><path d="m312 248h16v16h-16z"/><path d="m216 280h16v16h-16z"/><path d="m184 280h16v16h-16z"/><path d="m248 280h16v16h-16z"/><path d="m280 280h16v16h-16z"/><path d="m312 280h16v16h-16z"/><path d="m216 312h16v16h-16z"/><path d="m184 312h16v16h-16z"/><path d="m248 312h16v16h-16z"/><path d="m280 312h16v16h-16z"/><path d="m312 312h16v16h-16z"/></g></svg>