<?xml version="1.0" encoding="iso-8859-1"?>
<!-- Generator: Adobe Illustrator 19.0.0, SVG Export Plug-In . SVG Version: 6.00 Build 0)  -->
<svg version="1.1" id="Capa_1" xmlns="http://www.w3.org/2000/svg" xmlns:xlink="http://www.w3.org/1999/xlink" x="0px" y="0px"
	 viewBox="0 0 512 512" style="enable-background:new 0 0 512 512;" xml:space="preserve">
<g>
	<g>
		<path d="M315.075,213.63c33.416-20.09,55.84-56.67,55.923-98.4c0-0.008,0.001-0.015,0.001-0.023c0-0.008-0.001-0.016-0.001-0.024
			c0-0.062,0.002-0.123,0.002-0.184C371,51.589,319.411,0,256,0S141,51.589,141,115c0,0.062,0.002,0.123,0.002,0.184
			c0,0.008-0.001,0.016-0.001,0.024s0.001,0.015,0.001,0.023c0.083,41.73,22.507,78.31,55.923,98.4
			C152.012,235.58,121,281.734,121,335v162c0,8.284,6.716,15,15,15h240c8.284,0,15-6.716,15-15V335
			C391,281.734,359.988,235.58,315.075,213.63z M256,30c41.084,0,75.449,29.301,83.308,68.101
			c-19.728-3.465-52.051-13.221-70.962-40.625c-2.8-4.058-7.416-6.48-12.346-6.48s-9.545,2.423-12.346,6.48
			c-18.783,27.218-51.18,37.034-70.951,40.562C180.587,59.268,214.938,30,256,30z M172.096,128.566
			c20.601-2.936,56.966-11.883,83.904-39.153c26.939,27.269,63.303,36.217,83.904,39.153C333.388,169.008,298.251,200,256,200
			C213.749,200,178.612,169.008,172.096,128.566z M216.979,312.587L256,245l39.021,67.587
			C267.518,312.587,244.701,312.587,216.979,312.587z M264.5,342.587v51.086h-17v-51.086H264.5z M361,482H151V335
			c0-48.129,32.552-88.795,76.795-101.148l-49.788,86.235c-2.68,4.641-2.68,10.359,0,15c2.679,4.641,7.631,7.5,12.99,7.5H217.5
			v66.086c0,8.284,6.716,15,15,15h47c8.284,0,15-6.716,15-15v-66.086h26.502c5.359,0,10.311-2.859,12.99-7.5
			c2.68-4.641,2.68-10.359,0-15l-49.788-86.235C328.448,246.205,361,286.871,361,335V482z"/>
	</g>
</g>
<g>
</g>
<g>
</g>
<g>
</g>
<g>
</g>
<g>
</g>
<g>
</g>
<g>
</g>
<g>
</g>
<g>
</g>
<g>
</g>
<g>
</g>
<g>
</g>
<g>
</g>
<g>
</g>
<g>
</g>
</svg>
