<svg height="512pt" viewBox="-40 0 512 512" width="512pt" xmlns="http://www.w3.org/2000/svg"><path d="m48.917969 258.980469h50.21875c24.25 38.984375 67.476562 64.996093 116.671875 64.996093 49.195312 0 92.421875-26.011718 116.671875-64.996093h50.21875c16.542969 0 30-13.457031 30-29.996094v-86.996094c0-16.539062-13.457031-29.996093-30-29.996093h-2.335938c-20.242187-70.382813-80.867187-111.992188-164.554687-111.992188s-144.3125 41.605469-164.558594 111.992188h-2.332031c-16.542969 0-30 13.457031-30 29.996093v86.996094c0 16.539063 13.457031 29.996094 30 29.996094zm166.890625 35c-31.335938 0-59.578125-13.507813-79.214844-35h40.21875c8.285156 0 15-6.714844 15-15 0-8.28125-6.714844-14.996094-15-14.996094h-59.613281c-5.59375-12.992187-8.703125-27.296875-8.703125-42.316406 0-10.207031 1.433594-20.082031 4.105468-29.4375 6.105469 1.160156 12.339844 1.757812 18.550782 1.757812 24.761718 0 48.46875-9.195312 66.75-25.890625 6.746094-6.160156 12.535156-13.152344 17.273437-20.753906 17.652344 28.152344 48.964844 46.644531 83.933594 46.644531 6.648437 0 13.3125-.683593 19.828125-2.015625 2.722656 9.433594 4.183594 19.398438 4.183594 29.695313 0 59.171875-48.140625 107.3125-107.3125 107.3125zm-90.296875-165.242188c15.851562-24.621093 41.488281-42.375 71.371093-47.714843-8.890624 28.164062-34.960937 47.96875-65.730468 47.96875-1.882813 0-3.761719-.097657-5.640625-.253907zm107.828125-47.945312c30.4375 5.023437 56.59375 22.890625 72.695312 47.839843-2.300781.230469-4.613281.359376-6.925781.359376-30.394531 0-56.835937-20.035157-65.769531-48.199219zm149.363281 148.191406h-36.265625c4.332031-13.335937 6.683594-27.558594 6.683594-42.316406 0-15.636719-2.632813-30.664063-7.46875-44.679688h37.050781zm-166.894531-198.988281c66.8125 0 114.265625 29.632812 133.011718 81.996094h-17.835937c-24.511719-37.671876-66.980469-62.636719-115.175781-62.636719-48.195313 0-90.664063 24.964843-115.171875 62.636719h-17.871094c18.738281-52.375 66.222656-81.996094 133.042969-81.996094zm-166.890625 111.992187h37.050781c-4.835938 14.015625-7.46875 29.042969-7.46875 44.679688 0 14.761719 2.347656 28.980469 6.679688 42.316406h-36.261719zm0 0"/><path d="m431.03125 492.660156c-12.792969-42.363281-41.28125-80.320312-80.210938-106.878906-39.132812-26.695312-85.820312-40.804688-135.011718-40.804688-49.148438 0-95.804688 14.089844-134.917969 40.742188-38.914063 26.519531-67.410156 64.425781-80.242187 106.742188-2.402344 7.925781 2.074218 16.300781 10.003906 18.707031 7.925781 2.40625 16.300781-2.074219 18.703125-10.003907 22.53125-74.300781 99.203125-126.191406 186.453125-126.191406 87.34375 0 164.039062 51.960938 186.503906 126.359375 1.960938 6.484375 7.914062 10.667969 14.355469 10.667969 1.433593 0 2.894531-.207031 4.339843-.644531 7.929688-2.394531 12.417969-10.765625 10.023438-18.695313zm0 0"/></svg>